<svg xmlns="http://www.w3.org/2000/svg" width="46" height="46" viewBox="0 0 46 46">
  <g id="Group_2" data-name="Group 2" transform="translate(-1135 -464)">
    <path id="Icon_open-reload" data-name="Icon open-reload" d="M9.1,0a9.1,9.1,0,1,0,6.464,15.568l-1.639-1.639A6.833,6.833,0,1,1,9.081,2.276a6.621,6.621,0,0,1,4.757,2.071L11.357,6.828h6.828V0L15.477,2.709A9.053,9.053,0,0,0,9.081,0Z" transform="translate(1149 478)" fill="#abafb2"/>
    <g id="Path_1" data-name="Path 1" transform="translate(1135 464)" fill="none">
      <path d="M23,0A23,23,0,1,1,0,23,23,23,0,0,1,23,0Z" stroke="none"/>
      <path d="M 23 3 C 17.65781021118164 3 12.63536834716797 5.080360412597656 8.857860565185547 8.857860565185547 C 5.080360412597656 12.63536834716797 3 17.65781021118164 3 23 C 3 28.34218978881836 5.080360412597656 33.36463165283203 8.857860565185547 37.14213943481445 C 12.63536834716797 40.91963958740234 17.65781021118164 43 23 43 C 28.34218978881836 43 33.36463165283203 40.91963958740234 37.14213943481445 37.14213943481445 C 40.91963958740234 33.36463165283203 43 28.34218978881836 43 23 C 43 17.65781021118164 40.91963958740234 12.63536834716797 37.14213943481445 8.857860565185547 C 33.36463165283203 5.080360412597656 28.34218978881836 3 23 3 M 23 0 C 35.70254898071289 0 46 10.29745101928711 46 23 C 46 35.70254898071289 35.70254898071289 46 23 46 C 10.29745101928711 46 0 35.70254898071289 0 23 C 0 10.29745101928711 10.29745101928711 0 23 0 Z" stroke="none" fill="#abafb2"/>
    </g>
  </g>
</svg>
