<svg xmlns="http://www.w3.org/2000/svg" width="46" height="46" viewBox="0 0 46 46">
  <g id="Group_5" data-name="Group 5" transform="translate(-981 -464)">
    <g id="Ellipse_4" data-name="Ellipse 4" transform="translate(981 464)" fill="none" stroke="#abafb2" stroke-width="3">
      <circle cx="23" cy="23" r="23" stroke="none"/>
      <circle cx="23" cy="23" r="21.5" fill="none"/>
    </g>
    <path id="Icon_awesome-reply" data-name="Icon awesome-reply" d="M18.3,7.984,11.9,2.463a.872.872,0,0,0-1.442.66V6.031C4.627,6.1,0,7.267,0,12.8a7.426,7.426,0,0,0,3.027,5.6.647.647,0,0,0,1.02-.677c-1.647-5.268.781-6.667,6.415-6.748v3.194a.872.872,0,0,0,1.442.66L18.3,9.3A.872.872,0,0,0,18.3,7.984Z" transform="translate(995 476.75)" fill="#abafb2"/>
  </g>
</svg>
